ISO-10303-21;
HEADER;
/* Generated by software containing ST-Developer
 * from STEP Tools, Inc. (www.steptools.com) 
 */
/* OPTION: using custom renumber hook */

FILE_DESCRIPTION(
/* description */ ('STEP AP242 Edition 2',
'CAx-IF Rec.Pracs.---Representation and Presentation of Product Manufa
cturing Information (PMI)---4.0---2014-10-13',
'CAx-IF Rec.Pracs.---3D Tessellated Geometry---0.4---2014-09-14','2;1',
'CAx-IF Rec.Pracs.---User Defined Attributes---1.5---2016-08-15'),
/* implementation_level */ '2;1');

FILE_NAME(
/* name */ 'simple_motor_to_pen',
/* time_stamp */ '2026-09-11T21:04:45Z',
/* author */ (''),
/* organization */ (''),
/* preprocessor_version */ 'ST-DEVELOPER v20',
/* originating_system */ 'ONSHAPE BY PTC INC, 1.220',
/* authorisation */ '  ');

FILE_SCHEMA (('AP242_MANAGED_MODEL_BASED_3D_ENGINEERING_MIM_LF { 1 0 10303 442 3 1 4 }'));
ENDSEC;

DATA;
#10=SHAPE_REPRESENTATION_RELATIONSHIP('','',#615,#11);
#11=ADVANCED_BREP_SHAPE_REPRESENTATION('',(#613),#1059);
#12=PLANE('',#620);
#13=PLANE('',#672);
#14=PLANE('',#673);
#15=PLANE('',#674);
#16=PLANE('',#675);
#17=PLANE('',#679);
#18=PLANE('',#683);
#19=PLANE('',#685);
#20=PLANE('',#687);
#21=PLANE('',#689);
#22=LINE('',#887,#66);
#23=LINE('',#891,#67);
#24=LINE('',#893,#68);
#25=LINE('',#895,#69);
#26=LINE('',#897,#70);
#27=LINE('',#899,#71);
#28=LINE('',#901,#72);
#29=LINE('',#906,#73);
#30=LINE('',#910,#74);
#31=LINE('',#914,#75);
#32=LINE('',#920,#76);
#33=LINE('',#927,#77);
#34=LINE('',#931,#78);
#35=LINE('',#935,#79);
#36=LINE('',#941,#80);
#37=LINE('',#948,#81);
#38=LINE('',#952,#82);
#39=LINE('',#956,#83);
#40=LINE('',#962,#84);
#41=LINE('',#969,#85);
#42=LINE('',#973,#86);
#43=LINE('',#977,#87);
#44=LINE('',#983,#88);
#45=LINE('',#1004,#89);
#46=LINE('',#1006,#90);
#47=LINE('',#1008,#91);
#48=LINE('',#1010,#92);
#49=LINE('',#1012,#93);
#50=LINE('',#1014,#94);
#51=LINE('',#1016,#95);
#52=LINE('',#1018,#96);
#53=LINE('',#1022,#97);
#54=LINE('',#1026,#98);
#55=LINE('',#1030,#99);
#56=LINE('',#1032,#100);
#57=LINE('',#1036,#101);
#58=LINE('',#1040,#102);
#59=LINE('',#1044,#103);
#60=LINE('',#1046,#104);
#61=LINE('',#1048,#105);
#62=LINE('',#1050,#106);
#63=LINE('',#1052,#107);
#64=LINE('',#1054,#108);
#65=LINE('',#1056,#109);
#66=VECTOR('',#696,1.);
#67=VECTOR('',#699,1.);
#68=VECTOR('',#702,1.);
#69=VECTOR('',#703,1.);
#70=VECTOR('',#704,1.);
#71=VECTOR('',#705,1.);
#72=VECTOR('',#706,1.);
#73=VECTOR('',#711,1.);
#74=VECTOR('',#714,1.);
#75=VECTOR('',#719,1.);
#76=VECTOR('',#726,1.);
#77=VECTOR('',#733,1.);
#78=VECTOR('',#736,1.);
#79=VECTOR('',#741,1.);
#80=VECTOR('',#748,1.);
#81=VECTOR('',#755,1.);
#82=VECTOR('',#758,1.);
#83=VECTOR('',#763,1.);
#84=VECTOR('',#770,1.);
#85=VECTOR('',#777,1.);
#86=VECTOR('',#780,1.);
#87=VECTOR('',#785,1.);
#88=VECTOR('',#792,1.);
#89=VECTOR('',#827,1.);
#90=VECTOR('',#828,1.);
#91=VECTOR('',#829,1.);
#92=VECTOR('',#830,1.);
#93=VECTOR('',#831,1.);
#94=VECTOR('',#834,1.);
#95=VECTOR('',#837,1.);
#96=VECTOR('',#840,1.);
#97=VECTOR('',#843,1.);
#98=VECTOR('',#846,1.);
#99=VECTOR('',#849,1.);
#100=VECTOR('',#852,1.);
#101=VECTOR('',#855,1.);
#102=VECTOR('',#858,1.);
#103=VECTOR('',#861,1.);
#104=VECTOR('',#864,1.);
#105=VECTOR('',#867,1.);
#106=VECTOR('',#870,1.);
#107=VECTOR('',#873,1.);
#108=VECTOR('',#876,1.);
#109=VECTOR('',#879,1.);
#110=ORIENTED_EDGE('',*,*,#282,.T.);
#111=ORIENTED_EDGE('',*,*,#283,.F.);
#112=ORIENTED_EDGE('',*,*,#284,.F.);
#113=ORIENTED_EDGE('',*,*,#285,.T.);
#114=ORIENTED_EDGE('',*,*,#286,.T.);
#115=ORIENTED_EDGE('',*,*,#287,.T.);
#116=ORIENTED_EDGE('',*,*,#288,.T.);
#117=ORIENTED_EDGE('',*,*,#289,.F.);
#118=ORIENTED_EDGE('',*,*,#290,.F.);
#119=ORIENTED_EDGE('',*,*,#283,.T.);
#120=ORIENTED_EDGE('',*,*,#291,.F.);
#121=ORIENTED_EDGE('',*,*,#292,.F.);
#122=ORIENTED_EDGE('',*,*,#293,.T.);
#123=ORIENTED_EDGE('',*,*,#294,.T.);
#124=ORIENTED_EDGE('',*,*,#295,.T.);
#125=ORIENTED_EDGE('',*,*,#296,.F.);
#126=ORIENTED_EDGE('',*,*,#297,.F.);
#127=ORIENTED_EDGE('',*,*,#292,.T.);
#128=ORIENTED_EDGE('',*,*,#298,.T.);
#129=ORIENTED_EDGE('',*,*,#299,.F.);
#130=ORIENTED_EDGE('',*,*,#300,.F.);
#131=ORIENTED_EDGE('',*,*,#296,.T.);
#132=ORIENTED_EDGE('',*,*,#301,.F.);
#133=ORIENTED_EDGE('',*,*,#302,.F.);
#134=ORIENTED_EDGE('',*,*,#303,.T.);
#135=ORIENTED_EDGE('',*,*,#304,.T.);
#136=ORIENTED_EDGE('',*,*,#305,.T.);
#137=ORIENTED_EDGE('',*,*,#306,.F.);
#138=ORIENTED_EDGE('',*,*,#307,.F.);
#139=ORIENTED_EDGE('',*,*,#302,.T.);
#140=ORIENTED_EDGE('',*,*,#308,.T.);
#141=ORIENTED_EDGE('',*,*,#309,.F.);
#142=ORIENTED_EDGE('',*,*,#310,.F.);
#143=ORIENTED_EDGE('',*,*,#306,.T.);
#144=ORIENTED_EDGE('',*,*,#311,.F.);
#145=ORIENTED_EDGE('',*,*,#312,.F.);
#146=ORIENTED_EDGE('',*,*,#313,.T.);
#147=ORIENTED_EDGE('',*,*,#314,.T.);
#148=ORIENTED_EDGE('',*,*,#315,.T.);
#149=ORIENTED_EDGE('',*,*,#316,.F.);
#150=ORIENTED_EDGE('',*,*,#317,.F.);
#151=ORIENTED_EDGE('',*,*,#312,.T.);
#152=ORIENTED_EDGE('',*,*,#318,.T.);
#153=ORIENTED_EDGE('',*,*,#319,.F.);
#154=ORIENTED_EDGE('',*,*,#320,.F.);
#155=ORIENTED_EDGE('',*,*,#316,.T.);
#156=ORIENTED_EDGE('',*,*,#321,.F.);
#157=ORIENTED_EDGE('',*,*,#322,.F.);
#158=ORIENTED_EDGE('',*,*,#323,.T.);
#159=ORIENTED_EDGE('',*,*,#324,.T.);
#160=ORIENTED_EDGE('',*,*,#325,.T.);
#161=ORIENTED_EDGE('',*,*,#326,.F.);
#162=ORIENTED_EDGE('',*,*,#327,.F.);
#163=ORIENTED_EDGE('',*,*,#322,.T.);
#164=ORIENTED_EDGE('',*,*,#328,.T.);
#165=ORIENTED_EDGE('',*,*,#329,.F.);
#166=ORIENTED_EDGE('',*,*,#330,.F.);
#167=ORIENTED_EDGE('',*,*,#326,.T.);
#168=ORIENTED_EDGE('',*,*,#331,.T.);
#169=ORIENTED_EDGE('',*,*,#332,.F.);
#170=ORIENTED_EDGE('',*,*,#333,.T.);
#171=ORIENTED_EDGE('',*,*,#294,.F.);
#172=ORIENTED_EDGE('',*,*,#334,.F.);
#173=ORIENTED_EDGE('',*,*,#299,.T.);
#174=ORIENTED_EDGE('',*,*,#335,.T.);
#175=ORIENTED_EDGE('',*,*,#304,.F.);
#176=ORIENTED_EDGE('',*,*,#336,.F.);
#177=ORIENTED_EDGE('',*,*,#309,.T.);
#178=ORIENTED_EDGE('',*,*,#337,.T.);
#179=ORIENTED_EDGE('',*,*,#314,.F.);
#180=ORIENTED_EDGE('',*,*,#338,.F.);
#181=ORIENTED_EDGE('',*,*,#319,.T.);
#182=ORIENTED_EDGE('',*,*,#339,.T.);
#183=ORIENTED_EDGE('',*,*,#324,.F.);
#184=ORIENTED_EDGE('',*,*,#340,.F.);
#185=ORIENTED_EDGE('',*,*,#329,.T.);
#186=ORIENTED_EDGE('',*,*,#341,.T.);
#187=ORIENTED_EDGE('',*,*,#285,.F.);
#188=ORIENTED_EDGE('',*,*,#342,.F.);
#189=ORIENTED_EDGE('',*,*,#343,.T.);
#190=ORIENTED_EDGE('',*,*,#344,.F.);
#191=ORIENTED_EDGE('',*,*,#345,.F.);
#192=ORIENTED_EDGE('',*,*,#323,.F.);
#193=ORIENTED_EDGE('',*,*,#327,.T.);
#194=ORIENTED_EDGE('',*,*,#330,.T.);
#195=ORIENTED_EDGE('',*,*,#340,.T.);
#196=ORIENTED_EDGE('',*,*,#313,.F.);
#197=ORIENTED_EDGE('',*,*,#317,.T.);
#198=ORIENTED_EDGE('',*,*,#320,.T.);
#199=ORIENTED_EDGE('',*,*,#338,.T.);
#200=ORIENTED_EDGE('',*,*,#303,.F.);
#201=ORIENTED_EDGE('',*,*,#307,.T.);
#202=ORIENTED_EDGE('',*,*,#310,.T.);
#203=ORIENTED_EDGE('',*,*,#336,.T.);
#204=ORIENTED_EDGE('',*,*,#293,.F.);
#205=ORIENTED_EDGE('',*,*,#297,.T.);
#206=ORIENTED_EDGE('',*,*,#300,.T.);
#207=ORIENTED_EDGE('',*,*,#334,.T.);
#208=ORIENTED_EDGE('',*,*,#331,.F.);
#209=ORIENTED_EDGE('',*,*,#284,.T.);
#210=ORIENTED_EDGE('',*,*,#290,.T.);
#211=ORIENTED_EDGE('',*,*,#346,.T.);
#212=ORIENTED_EDGE('',*,*,#342,.T.);
#213=ORIENTED_EDGE('',*,*,#321,.T.);
#214=ORIENTED_EDGE('',*,*,#339,.F.);
#215=ORIENTED_EDGE('',*,*,#328,.F.);
#216=ORIENTED_EDGE('',*,*,#325,.F.);
#217=ORIENTED_EDGE('',*,*,#311,.T.);
#218=ORIENTED_EDGE('',*,*,#337,.F.);
#219=ORIENTED_EDGE('',*,*,#318,.F.);
#220=ORIENTED_EDGE('',*,*,#315,.F.);
#221=ORIENTED_EDGE('',*,*,#301,.T.);
#222=ORIENTED_EDGE('',*,*,#335,.F.);
#223=ORIENTED_EDGE('',*,*,#308,.F.);
#224=ORIENTED_EDGE('',*,*,#305,.F.);
#225=ORIENTED_EDGE('',*,*,#291,.T.);
#226=ORIENTED_EDGE('',*,*,#333,.F.);
#227=ORIENTED_EDGE('',*,*,#298,.F.);
#228=ORIENTED_EDGE('',*,*,#295,.F.);
#229=ORIENTED_EDGE('',*,*,#332,.T.);
#230=ORIENTED_EDGE('',*,*,#282,.F.);
#231=ORIENTED_EDGE('',*,*,#341,.F.);
#232=ORIENTED_EDGE('',*,*,#347,.F.);
#233=ORIENTED_EDGE('',*,*,#286,.F.);
#234=ORIENTED_EDGE('',*,*,#287,.F.);
#235=ORIENTED_EDGE('',*,*,#347,.T.);
#236=ORIENTED_EDGE('',*,*,#345,.T.);
#237=ORIENTED_EDGE('',*,*,#348,.F.);
#238=ORIENTED_EDGE('',*,*,#349,.T.);
#239=ORIENTED_EDGE('',*,*,#350,.T.);
#240=ORIENTED_EDGE('',*,*,#351,.F.);
#241=ORIENTED_EDGE('',*,*,#352,.F.);
#242=ORIENTED_EDGE('',*,*,#353,.T.);
#243=ORIENTED_EDGE('',*,*,#354,.T.);
#244=ORIENTED_EDGE('',*,*,#346,.F.);
#245=ORIENTED_EDGE('',*,*,#289,.T.);
#246=ORIENTED_EDGE('',*,*,#355,.F.);
#247=ORIENTED_EDGE('',*,*,#356,.F.);
#248=ORIENTED_EDGE('',*,*,#357,.T.);
#249=ORIENTED_EDGE('',*,*,#358,.T.);
#250=ORIENTED_EDGE('',*,*,#359,.F.);
#251=ORIENTED_EDGE('',*,*,#360,.F.);
#252=ORIENTED_EDGE('',*,*,#361,.T.);
#253=ORIENTED_EDGE('',*,*,#343,.F.);
#254=ORIENTED_EDGE('',*,*,#348,.T.);
#255=ORIENTED_EDGE('',*,*,#344,.T.);
#256=ORIENTED_EDGE('',*,*,#361,.F.);
#257=ORIENTED_EDGE('',*,*,#362,.T.);
#258=ORIENTED_EDGE('',*,*,#349,.F.);
#259=ORIENTED_EDGE('',*,*,#362,.F.);
#260=ORIENTED_EDGE('',*,*,#360,.T.);
#261=ORIENTED_EDGE('',*,*,#363,.T.);
#262=ORIENTED_EDGE('',*,*,#350,.F.);
#263=ORIENTED_EDGE('',*,*,#363,.F.);
#264=ORIENTED_EDGE('',*,*,#359,.T.);
#265=ORIENTED_EDGE('',*,*,#364,.T.);
#266=ORIENTED_EDGE('',*,*,#351,.T.);
#267=ORIENTED_EDGE('',*,*,#364,.F.);
#268=ORIENTED_EDGE('',*,*,#358,.F.);
#269=ORIENTED_EDGE('',*,*,#365,.T.);
#270=ORIENTED_EDGE('',*,*,#352,.T.);
#271=ORIENTED_EDGE('',*,*,#365,.F.);
#272=ORIENTED_EDGE('',*,*,#357,.F.);
#273=ORIENTED_EDGE('',*,*,#366,.T.);
#274=ORIENTED_EDGE('',*,*,#353,.F.);
#275=ORIENTED_EDGE('',*,*,#366,.F.);
#276=ORIENTED_EDGE('',*,*,#356,.T.);
#277=ORIENTED_EDGE('',*,*,#367,.T.);
#278=ORIENTED_EDGE('',*,*,#354,.F.);
#279=ORIENTED_EDGE('',*,*,#367,.F.);
#280=ORIENTED_EDGE('',*,*,#355,.T.);
#281=ORIENTED_EDGE('',*,*,#288,.F.);
#282=EDGE_CURVE('',#368,#369,#426,.F.);
#283=EDGE_CURVE('',#370,#369,#22,.T.);
#284=EDGE_CURVE('',#371,#370,#427,.F.);
#285=EDGE_CURVE('',#371,#368,#23,.T.);
#286=EDGE_CURVE('',#369,#372,#24,.T.);
#287=EDGE_CURVE('',#372,#373,#25,.T.);
#288=EDGE_CURVE('',#373,#374,#26,.T.);
#289=EDGE_CURVE('',#375,#374,#27,.T.);
#290=EDGE_CURVE('',#370,#375,#28,.T.);
#291=EDGE_CURVE('',#376,#377,#428,.T.);
#292=EDGE_CURVE('',#378,#376,#29,.T.);
#293=EDGE_CURVE('',#378,#379,#429,.T.);
#294=EDGE_CURVE('',#379,#377,#30,.T.);
#295=EDGE_CURVE('',#376,#380,#430,.T.);
#296=EDGE_CURVE('',#381,#380,#31,.T.);
#297=EDGE_CURVE('',#378,#381,#431,.T.);
#298=EDGE_CURVE('',#380,#382,#432,.T.);
#299=EDGE_CURVE('',#383,#382,#32,.T.);
#300=EDGE_CURVE('',#381,#383,#433,.T.);
#301=EDGE_CURVE('',#384,#385,#434,.T.);
#302=EDGE_CURVE('',#386,#384,#33,.T.);
#303=EDGE_CURVE('',#386,#387,#435,.T.);
#304=EDGE_CURVE('',#387,#385,#34,.T.);
#305=EDGE_CURVE('',#384,#388,#436,.T.);
#306=EDGE_CURVE('',#389,#388,#35,.T.);
#307=EDGE_CURVE('',#386,#389,#437,.T.);
#308=EDGE_CURVE('',#388,#390,#438,.T.);
#309=EDGE_CURVE('',#391,#390,#36,.T.);
#310=EDGE_CURVE('',#389,#391,#439,.T.);
#311=EDGE_CURVE('',#392,#393,#440,.T.);
#312=EDGE_CURVE('',#394,#392,#37,.T.);
#313=EDGE_CURVE('',#394,#395,#441,.T.);
#314=EDGE_CURVE('',#395,#393,#38,.T.);
#315=EDGE_CURVE('',#392,#396,#442,.T.);
#316=EDGE_CURVE('',#397,#396,#39,.T.);
#317=EDGE_CURVE('',#394,#397,#443,.T.);
#318=EDGE_CURVE('',#396,#398,#444,.T.);
#319=EDGE_CURVE('',#399,#398,#40,.T.);
#320=EDGE_CURVE('',#397,#399,#445,.T.);
#321=EDGE_CURVE('',#400,#401,#446,.T.);
#322=EDGE_CURVE('',#402,#400,#41,.T.);
#323=EDGE_CURVE('',#402,#403,#447,.T.);
#324=EDGE_CURVE('',#403,#401,#42,.T.);
#325=EDGE_CURVE('',#400,#404,#448,.T.);
#326=EDGE_CURVE('',#405,#404,#43,.T.);
#327=EDGE_CURVE('',#402,#405,#449,.T.);
#328=EDGE_CURVE('',#404,#406,#450,.T.);
#329=EDGE_CURVE('',#407,#406,#44,.T.);
#330=EDGE_CURVE('',#405,#407,#451,.T.);
#331=EDGE_CURVE('',#408,#408,#452,.T.);
#332=EDGE_CURVE('',#409,#409,#453,.T.);
#333=EDGE_CURVE('',#382,#377,#454,.T.);
#334=EDGE_CURVE('',#383,#379,#455,.T.);
#335=EDGE_CURVE('',#390,#385,#456,.T.);
#336=EDGE_CURVE('',#391,#387,#457,.T.);
#337=EDGE_CURVE('',#398,#393,#458,.T.);
#338=EDGE_CURVE('',#399,#395,#459,.T.);
#339=EDGE_CURVE('',#406,#401,#460,.T.);
#340=EDGE_CURVE('',#407,#403,#461,.T.);
#341=EDGE_CURVE('',#410,#368,#45,.T.);
#342=EDGE_CURVE('',#411,#371,#46,.T.);
#343=EDGE_CURVE('',#411,#412,#47,.T.);
#344=EDGE_CURVE('',#413,#412,#48,.T.);
#345=EDGE_CURVE('',#410,#413,#49,.T.);
#346=EDGE_CURVE('',#375,#411,#50,.T.);
#347=EDGE_CURVE('',#372,#410,#51,.T.);
#348=EDGE_CURVE('',#414,#413,#52,.T.);
#349=EDGE_CURVE('',#414,#415,#462,.T.);
#350=EDGE_CURVE('',#415,#416,#53,.T.);
#351=EDGE_CURVE('',#417,#416,#463,.T.);
#352=EDGE_CURVE('',#418,#417,#54,.T.);
#353=EDGE_CURVE('',#418,#419,#464,.T.);
#354=EDGE_CURVE('',#419,#373,#55,.T.);
#355=EDGE_CURVE('',#420,#374,#56,.T.);
#356=EDGE_CURVE('',#421,#420,#465,.T.);
#357=EDGE_CURVE('',#421,#422,#57,.T.);
#358=EDGE_CURVE('',#422,#423,#466,.T.);
#359=EDGE_CURVE('',#424,#423,#58,.T.);
#360=EDGE_CURVE('',#425,#424,#467,.T.);
#361=EDGE_CURVE('',#425,#412,#59,.T.);
#362=EDGE_CURVE('',#425,#414,#60,.T.);
#363=EDGE_CURVE('',#424,#415,#61,.T.);
#364=EDGE_CURVE('',#423,#416,#62,.T.);
#365=EDGE_CURVE('',#422,#417,#63,.T.);
#366=EDGE_CURVE('',#421,#418,#64,.T.);
#367=EDGE_CURVE('',#420,#419,#65,.T.);
#368=VERTEX_POINT('',#885);
#369=VERTEX_POINT('',#886);
#370=VERTEX_POINT('',#888);
#371=VERTEX_POINT('',#890);
#372=VERTEX_POINT('',#894);
#373=VERTEX_POINT('',#896);
#374=VERTEX_POINT('',#898);
#375=VERTEX_POINT('',#900);
#376=VERTEX_POINT('',#904);
#377=VERTEX_POINT('',#905);
#378=VERTEX_POINT('',#907);
#379=VERTEX_POINT('',#909);
#380=VERTEX_POINT('',#913);
#381=VERTEX_POINT('',#915);
#382=VERTEX_POINT('',#919);
#383=VERTEX_POINT('',#921);
#384=VERTEX_POINT('',#925);
#385=VERTEX_POINT('',#926);
#386=VERTEX_POINT('',#928);
#387=VERTEX_POINT('',#930);
#388=VERTEX_POINT('',#934);
#389=VERTEX_POINT('',#936);
#390=VERTEX_POINT('',#940);
#391=VERTEX_POINT('',#942);
#392=VERTEX_POINT('',#946);
#393=VERTEX_POINT('',#947);
#394=VERTEX_POINT('',#949);
#395=VERTEX_POINT('',#951);
#396=VERTEX_POINT('',#955);
#397=VERTEX_POINT('',#957);
#398=VERTEX_POINT('',#961);
#399=VERTEX_POINT('',#963);
#400=VERTEX_POINT('',#967);
#401=VERTEX_POINT('',#968);
#402=VERTEX_POINT('',#970);
#403=VERTEX_POINT('',#972);
#404=VERTEX_POINT('',#976);
#405=VERTEX_POINT('',#978);
#406=VERTEX_POINT('',#982);
#407=VERTEX_POINT('',#984);
#408=VERTEX_POINT('',#988);
#409=VERTEX_POINT('',#990);
#410=VERTEX_POINT('',#1005);
#411=VERTEX_POINT('',#1007);
#412=VERTEX_POINT('',#1009);
#413=VERTEX_POINT('',#1011);
#414=VERTEX_POINT('',#1019);
#415=VERTEX_POINT('',#1021);
#416=VERTEX_POINT('',#1023);
#417=VERTEX_POINT('',#1025);
#418=VERTEX_POINT('',#1027);
#419=VERTEX_POINT('',#1029);
#420=VERTEX_POINT('',#1033);
#421=VERTEX_POINT('',#1035);
#422=VERTEX_POINT('',#1037);
#423=VERTEX_POINT('',#1039);
#424=VERTEX_POINT('',#1041);
#425=VERTEX_POINT('',#1043);
#426=CIRCLE('',#618,0.01);
#427=CIRCLE('',#619,0.01);
#428=CIRCLE('',#622,0.0015);
#429=CIRCLE('',#623,0.0015);
#430=CIRCLE('',#625,0.00143523893108904);
#431=CIRCLE('',#626,0.00143523893108904);
#432=CIRCLE('',#628,0.001543);
#433=CIRCLE('',#629,0.001543);
#434=CIRCLE('',#631,0.0015);
#435=CIRCLE('',#632,0.0015);
#436=CIRCLE('',#634,0.0014352858484451);
#437=CIRCLE('',#635,0.0014352858484451);
#438=CIRCLE('',#637,0.001543);
#439=CIRCLE('',#638,0.001543);
#440=CIRCLE('',#640,0.0015);
#441=CIRCLE('',#641,0.0015);
#442=CIRCLE('',#643,0.00143528510998057);
#443=CIRCLE('',#644,0.00143528510998057);
#444=CIRCLE('',#646,0.001543);
#445=CIRCLE('',#647,0.001543);
#446=CIRCLE('',#649,0.0015);
#447=CIRCLE('',#650,0.0015);
#448=CIRCLE('',#652,0.00143523823395579);
#449=CIRCLE('',#653,0.00143523823395579);
#450=CIRCLE('',#655,0.001543);
#451=CIRCLE('',#656,0.001543);
#452=CIRCLE('',#658,0.003);
#453=CIRCLE('',#659,0.003);
#454=CIRCLE('',#661,0.00146894294392768);
#455=CIRCLE('',#662,0.00146894294392768);
#456=CIRCLE('',#664,0.00146909903414336);
#457=CIRCLE('',#665,0.00146909903414336);
#458=CIRCLE('',#667,0.00146909677143018);
#459=CIRCLE('',#668,0.00146909677143018);
#460=CIRCLE('',#670,0.00146894092983442);
#461=CIRCLE('',#671,0.00146894092983442);
#462=CIRCLE('',#676,0.0075);
#463=CIRCLE('',#677,0.005);
#464=CIRCLE('',#678,0.0075);
#465=CIRCLE('',#680,0.0075);
#466=CIRCLE('',#681,0.005);
#467=CIRCLE('',#682,0.0075);
#468=EDGE_LOOP('',(#110,#111,#112,#113));
#469=EDGE_LOOP('',(#114,#115,#116,#117,#118,#119));
#470=EDGE_LOOP('',(#120,#121,#122,#123));
#471=EDGE_LOOP('',(#124,#125,#126,#127));
#472=EDGE_LOOP('',(#128,#129,#130,#131));
#473=EDGE_LOOP('',(#132,#133,#134,#135));
#474=EDGE_LOOP('',(#136,#137,#138,#139));
#475=EDGE_LOOP('',(#140,#141,#142,#143));
#476=EDGE_LOOP('',(#144,#145,#146,#147));
#477=EDGE_LOOP('',(#148,#149,#150,#151));
#478=EDGE_LOOP('',(#152,#153,#154,#155));
#479=EDGE_LOOP('',(#156,#157,#158,#159));
#480=EDGE_LOOP('',(#160,#161,#162,#163));
#481=EDGE_LOOP('',(#164,#165,#166,#167));
#482=EDGE_LOOP('',(#168));
#483=EDGE_LOOP('',(#169));
#484=EDGE_LOOP('',(#170,#171,#172,#173));
#485=EDGE_LOOP('',(#174,#175,#176,#177));
#486=EDGE_LOOP('',(#178,#179,#180,#181));
#487=EDGE_LOOP('',(#182,#183,#184,#185));
#488=EDGE_LOOP('',(#186,#187,#188,#189,#190,#191));
#489=EDGE_LOOP('',(#192,#193,#194,#195));
#490=EDGE_LOOP('',(#196,#197,#198,#199));
#491=EDGE_LOOP('',(#200,#201,#202,#203));
#492=EDGE_LOOP('',(#204,#205,#206,#207));
#493=EDGE_LOOP('',(#208));
#494=EDGE_LOOP('',(#209,#210,#211,#212));
#495=EDGE_LOOP('',(#213,#214,#215,#216));
#496=EDGE_LOOP('',(#217,#218,#219,#220));
#497=EDGE_LOOP('',(#221,#222,#223,#224));
#498=EDGE_LOOP('',(#225,#226,#227,#228));
#499=EDGE_LOOP('',(#229));
#500=EDGE_LOOP('',(#230,#231,#232,#233));
#501=EDGE_LOOP('',(#234,#235,#236,#237,#238,#239,#240,#241,#242,#243));
#502=EDGE_LOOP('',(#244,#245,#246,#247,#248,#249,#250,#251,#252,#253));
#503=EDGE_LOOP('',(#254,#255,#256,#257));
#504=EDGE_LOOP('',(#258,#259,#260,#261));
#505=EDGE_LOOP('',(#262,#263,#264,#265));
#506=EDGE_LOOP('',(#266,#267,#268,#269));
#507=EDGE_LOOP('',(#270,#271,#272,#273));
#508=EDGE_LOOP('',(#274,#275,#276,#277));
#509=EDGE_LOOP('',(#278,#279,#280,#281));
#510=FACE_BOUND('',#468,.T.);
#511=FACE_BOUND('',#469,.T.);
#512=FACE_BOUND('',#470,.T.);
#513=FACE_BOUND('',#471,.T.);
#514=FACE_BOUND('',#472,.T.);
#515=FACE_BOUND('',#473,.T.);
#516=FACE_BOUND('',#474,.T.);
#517=FACE_BOUND('',#475,.T.);
#518=FACE_BOUND('',#476,.T.);
#519=FACE_BOUND('',#477,.T.);
#520=FACE_BOUND('',#478,.T.);
#521=FACE_BOUND('',#479,.T.);
#522=FACE_BOUND('',#480,.T.);
#523=FACE_BOUND('',#481,.T.);
#524=FACE_BOUND('',#482,.T.);
#525=FACE_BOUND('',#483,.T.);
#526=FACE_BOUND('',#484,.T.);
#527=FACE_BOUND('',#485,.T.);
#528=FACE_BOUND('',#486,.T.);
#529=FACE_BOUND('',#487,.T.);
#530=FACE_BOUND('',#488,.T.);
#531=FACE_BOUND('',#489,.T.);
#532=FACE_BOUND('',#490,.T.);
#533=FACE_BOUND('',#491,.T.);
#534=FACE_BOUND('',#492,.T.);
#535=FACE_BOUND('',#493,.T.);
#536=FACE_BOUND('',#494,.T.);
#537=FACE_BOUND('',#495,.T.);
#538=FACE_BOUND('',#496,.T.);
#539=FACE_BOUND('',#497,.T.);
#540=FACE_BOUND('',#498,.T.);
#541=FACE_BOUND('',#499,.T.);
#542=FACE_BOUND('',#500,.T.);
#543=FACE_BOUND('',#501,.T.);
#544=FACE_BOUND('',#502,.T.);
#545=FACE_BOUND('',#503,.T.);
#546=FACE_BOUND('',#504,.T.);
#547=FACE_BOUND('',#505,.T.);
#548=FACE_BOUND('',#506,.T.);
#549=FACE_BOUND('',#507,.T.);
#550=FACE_BOUND('',#508,.T.);
#551=FACE_BOUND('',#509,.T.);
#552=CYLINDRICAL_SURFACE('',#617,0.01);
#553=CYLINDRICAL_SURFACE('',#621,0.0015);
#554=CYLINDRICAL_SURFACE('',#624,0.00143523893108904);
#555=CYLINDRICAL_SURFACE('',#627,0.001543);
#556=CYLINDRICAL_SURFACE('',#630,0.0015);
#557=CYLINDRICAL_SURFACE('',#633,0.0014352858484451);
#558=CYLINDRICAL_SURFACE('',#636,0.001543);
#559=CYLINDRICAL_SURFACE('',#639,0.0015);
#560=CYLINDRICAL_SURFACE('',#642,0.00143528510998057);
#561=CYLINDRICAL_SURFACE('',#645,0.001543);
#562=CYLINDRICAL_SURFACE('',#648,0.0015);
#563=CYLINDRICAL_SURFACE('',#651,0.00143523823395579);
#564=CYLINDRICAL_SURFACE('',#654,0.001543);
#565=CYLINDRICAL_SURFACE('',#657,0.003);
#566=CYLINDRICAL_SURFACE('',#660,0.00146894294392768);
#567=CYLINDRICAL_SURFACE('',#663,0.00146909903414336);
#568=CYLINDRICAL_SURFACE('',#666,0.00146909677143018);
#569=CYLINDRICAL_SURFACE('',#669,0.00146894092983442);
#570=CYLINDRICAL_SURFACE('',#684,0.0075);
#571=CYLINDRICAL_SURFACE('',#686,0.005);
#572=CYLINDRICAL_SURFACE('',#688,0.0075);
#573=ADVANCED_FACE('',(#510),#552,.T.);
#574=ADVANCED_FACE('',(#511),#12,.F.);
#575=ADVANCED_FACE('',(#512),#553,.F.);
#576=ADVANCED_FACE('',(#513),#554,.F.);
#577=ADVANCED_FACE('',(#514),#555,.F.);
#578=ADVANCED_FACE('',(#515),#556,.F.);
#579=ADVANCED_FACE('',(#516),#557,.F.);
#580=ADVANCED_FACE('',(#517),#558,.F.);
#581=ADVANCED_FACE('',(#518),#559,.F.);
#582=ADVANCED_FACE('',(#519),#560,.F.);
#583=ADVANCED_FACE('',(#520),#561,.F.);
#584=ADVANCED_FACE('',(#521),#562,.F.);
#585=ADVANCED_FACE('',(#522),#563,.F.);
#586=ADVANCED_FACE('',(#523),#564,.F.);
#587=ADVANCED_FACE('',(#524,#525),#565,.F.);
#588=ADVANCED_FACE('',(#526),#566,.F.);
#589=ADVANCED_FACE('',(#527),#567,.F.);
#590=ADVANCED_FACE('',(#528),#568,.F.);
#591=ADVANCED_FACE('',(#529),#569,.F.);
#592=ADVANCED_FACE('',(#530),#13,.F.);
#593=ADVANCED_FACE('',(#531,#532,#533,#534,#535,#536),#14,.T.);
#594=ADVANCED_FACE('',(#537,#538,#539,#540,#541,#542),#15,.F.);
#595=ADVANCED_FACE('',(#543),#16,.T.);
#596=ADVANCED_FACE('',(#544),#17,.F.);
#597=ADVANCED_FACE('',(#545),#18,.F.);
#598=ADVANCED_FACE('',(#546),#570,.T.);
#599=ADVANCED_FACE('',(#547),#19,.T.);
#600=ADVANCED_FACE('',(#548),#571,.F.);
#601=ADVANCED_FACE('',(#549),#20,.F.);
#602=ADVANCED_FACE('',(#550),#572,.T.);
#603=ADVANCED_FACE('',(#551),#21,.T.);
#604=CLOSED_SHELL('',(#573,#574,#575,#576,#577,#578,#579,#580,#581,#582,
#583,#584,#585,#586,#587,#588,#589,#590,#591,#592,#593,#594,#595,#596,#597,
#598,#599,#600,#601,#602,#603));
#605=STYLED_ITEM('',(#606),#613);
#606=PRESENTATION_STYLE_ASSIGNMENT((#607));
#607=SURFACE_STYLE_USAGE(.BOTH.,#608);
#608=SURFACE_SIDE_STYLE('',(#609));
#609=SURFACE_STYLE_FILL_AREA(#610);
#610=FILL_AREA_STYLE('',(#611));
#611=FILL_AREA_STYLE_COLOUR('',#612);
#612=COLOUR_RGB('',0.768627450980392,0.886274509803922,0.952941176470588);
#613=MANIFOLD_SOLID_BREP('Part 8',#604);
#614=SHAPE_DEFINITION_REPRESENTATION(#1064,#615);
#615=SHAPE_REPRESENTATION('Part 8',(#616),#1059);
#616=AXIS2_PLACEMENT_3D('',#882,#690,#691);
#617=AXIS2_PLACEMENT_3D('',#883,#692,#693);
#618=AXIS2_PLACEMENT_3D('',#884,#694,#695);
#619=AXIS2_PLACEMENT_3D('',#889,#697,#698);
#620=AXIS2_PLACEMENT_3D('',#892,#700,#701);
#621=AXIS2_PLACEMENT_3D('',#902,#707,#708);
#622=AXIS2_PLACEMENT_3D('',#903,#709,#710);
#623=AXIS2_PLACEMENT_3D('',#908,#712,#713);
#624=AXIS2_PLACEMENT_3D('',#911,#715,#716);
#625=AXIS2_PLACEMENT_3D('',#912,#717,#718);
#626=AXIS2_PLACEMENT_3D('',#916,#720,#721);
#627=AXIS2_PLACEMENT_3D('',#917,#722,#723);
#628=AXIS2_PLACEMENT_3D('',#918,#724,#725);
#629=AXIS2_PLACEMENT_3D('',#922,#727,#728);
#630=AXIS2_PLACEMENT_3D('',#923,#729,#730);
#631=AXIS2_PLACEMENT_3D('',#924,#731,#732);
#632=AXIS2_PLACEMENT_3D('',#929,#734,#735);
#633=AXIS2_PLACEMENT_3D('',#932,#737,#738);
#634=AXIS2_PLACEMENT_3D('',#933,#739,#740);
#635=AXIS2_PLACEMENT_3D('',#937,#742,#743);
#636=AXIS2_PLACEMENT_3D('',#938,#744,#745);
#637=AXIS2_PLACEMENT_3D('',#939,#746,#747);
#638=AXIS2_PLACEMENT_3D('',#943,#749,#750);
#639=AXIS2_PLACEMENT_3D('',#944,#751,#752);
#640=AXIS2_PLACEMENT_3D('',#945,#753,#754);
#641=AXIS2_PLACEMENT_3D('',#950,#756,#757);
#642=AXIS2_PLACEMENT_3D('',#953,#759,#760);
#643=AXIS2_PLACEMENT_3D('',#954,#761,#762);
#644=AXIS2_PLACEMENT_3D('',#958,#764,#765);
#645=AXIS2_PLACEMENT_3D('',#959,#766,#767);
#646=AXIS2_PLACEMENT_3D('',#960,#768,#769);
#647=AXIS2_PLACEMENT_3D('',#964,#771,#772);
#648=AXIS2_PLACEMENT_3D('',#965,#773,#774);
#649=AXIS2_PLACEMENT_3D('',#966,#775,#776);
#650=AXIS2_PLACEMENT_3D('',#971,#778,#779);
#651=AXIS2_PLACEMENT_3D('',#974,#781,#782);
#652=AXIS2_PLACEMENT_3D('',#975,#783,#784);
#653=AXIS2_PLACEMENT_3D('',#979,#786,#787);
#654=AXIS2_PLACEMENT_3D('',#980,#788,#789);
#655=AXIS2_PLACEMENT_3D('',#981,#790,#791);
#656=AXIS2_PLACEMENT_3D('',#985,#793,#794);
#657=AXIS2_PLACEMENT_3D('',#986,#795,#796);
#658=AXIS2_PLACEMENT_3D('',#987,#797,#798);
#659=AXIS2_PLACEMENT_3D('',#989,#799,#800);
#660=AXIS2_PLACEMENT_3D('',#991,#801,#802);
#661=AXIS2_PLACEMENT_3D('',#992,#803,#804);
#662=AXIS2_PLACEMENT_3D('',#993,#805,#806);
#663=AXIS2_PLACEMENT_3D('',#994,#807,#808);
#664=AXIS2_PLACEMENT_3D('',#995,#809,#810);
#665=AXIS2_PLACEMENT_3D('',#996,#811,#812);
#666=AXIS2_PLACEMENT_3D('',#997,#813,#814);
#667=AXIS2_PLACEMENT_3D('',#998,#815,#816);
#668=AXIS2_PLACEMENT_3D('',#999,#817,#818);
#669=AXIS2_PLACEMENT_3D('',#1000,#819,#820);
#670=AXIS2_PLACEMENT_3D('',#1001,#821,#822);
#671=AXIS2_PLACEMENT_3D('',#1002,#823,#824);
#672=AXIS2_PLACEMENT_3D('',#1003,#825,#826);
#673=AXIS2_PLACEMENT_3D('',#1013,#832,#833);
#674=AXIS2_PLACEMENT_3D('',#1015,#835,#836);
#675=AXIS2_PLACEMENT_3D('',#1017,#838,#839);
#676=AXIS2_PLACEMENT_3D('',#1020,#841,#842);
#677=AXIS2_PLACEMENT_3D('',#1024,#844,#845);
#678=AXIS2_PLACEMENT_3D('',#1028,#847,#848);
#679=AXIS2_PLACEMENT_3D('',#1031,#850,#851);
#680=AXIS2_PLACEMENT_3D('',#1034,#853,#854);
#681=AXIS2_PLACEMENT_3D('',#1038,#856,#857);
#682=AXIS2_PLACEMENT_3D('',#1042,#859,#860);
#683=AXIS2_PLACEMENT_3D('',#1045,#862,#863);
#684=AXIS2_PLACEMENT_3D('',#1047,#865,#866);
#685=AXIS2_PLACEMENT_3D('',#1049,#868,#869);
#686=AXIS2_PLACEMENT_3D('',#1051,#871,#872);
#687=AXIS2_PLACEMENT_3D('',#1053,#874,#875);
#688=AXIS2_PLACEMENT_3D('',#1055,#877,#878);
#689=AXIS2_PLACEMENT_3D('',#1057,#880,#881);
#690=DIRECTION('',(0.,0.,1.));
#691=DIRECTION('',(1.,0.,0.));
#692=DIRECTION('',(0.,0.,-1.));
#693=DIRECTION('',(-1.,0.,0.));
#694=DIRECTION('',(0.,0.,-1.));
#695=DIRECTION('',(-1.,0.,0.));
#696=DIRECTION('',(0.,0.,-1.));
#697=DIRECTION('',(0.,0.,-1.));
#698=DIRECTION('',(-1.,0.,0.));
#699=DIRECTION('',(0.,0.,-1.));
#700=DIRECTION('',(-1.,0.,0.));
#701=DIRECTION('',(0.,0.,1.));
#702=DIRECTION('',(0.,1.,0.));
#703=DIRECTION('',(2.66880534765662E-16,4.62963928939239E-32,1.));
#704=DIRECTION('',(1.7347234759768E-16,-1.,0.));
#705=DIRECTION('',(2.66880534765662E-16,4.62963928939239E-32,1.));
#706=DIRECTION('',(0.,1.,0.));
#707=DIRECTION('',(0.,0.,-1.));
#708=DIRECTION('',(-1.,0.,0.));
#709=DIRECTION('',(0.,0.,1.));
#710=DIRECTION('',(1.,0.,0.));
#711=DIRECTION('',(0.,0.,-1.));
#712=DIRECTION('',(0.,0.,1.));
#713=DIRECTION('',(1.,0.,0.));
#714=DIRECTION('',(0.,0.,-1.));
#715=DIRECTION('',(0.,0.,-1.));
#716=DIRECTION('',(-0.490073905171786,0.871680886259229,0.));
#717=DIRECTION('',(0.,0.,-1.));
#718=DIRECTION('',(-1.,0.,0.));
#719=DIRECTION('',(0.,0.,-1.));
#720=DIRECTION('',(0.,0.,-1.));
#721=DIRECTION('',(-1.,0.,0.));
#722=DIRECTION('',(0.,0.,-1.));
#723=DIRECTION('',(-1.,0.,0.));
#724=DIRECTION('',(0.,0.,-1.));
#725=DIRECTION('',(-1.,0.,0.));
#726=DIRECTION('',(0.,0.,-1.));
#727=DIRECTION('',(0.,0.,-1.));
#728=DIRECTION('',(-1.,0.,0.));
#729=DIRECTION('',(0.,0.,-1.));
#730=DIRECTION('',(-1.,0.,0.));
#731=DIRECTION('',(0.,0.,1.));
#732=DIRECTION('',(1.,0.,0.));
#733=DIRECTION('',(0.,0.,-1.));
#734=DIRECTION('',(0.,0.,1.));
#735=DIRECTION('',(1.,0.,0.));
#736=DIRECTION('',(0.,0.,-1.));
#737=DIRECTION('',(0.,0.,-1.));
#738=DIRECTION('',(-0.490063685686028,0.871686631750095,0.));
#739=DIRECTION('',(0.,0.,-1.));
#740=DIRECTION('',(-1.,0.,0.));
#741=DIRECTION('',(0.,0.,-1.));
#742=DIRECTION('',(0.,0.,-1.));
#743=DIRECTION('',(-1.,0.,0.));
#744=DIRECTION('',(0.,0.,-1.));
#745=DIRECTION('',(-1.,0.,0.));
#746=DIRECTION('',(0.,0.,-1.));
#747=DIRECTION('',(-1.,0.,0.));
#748=DIRECTION('',(0.,0.,-1.));
#749=DIRECTION('',(0.,0.,-1.));
#750=DIRECTION('',(-1.,0.,0.));
#751=DIRECTION('',(0.,0.,-1.));
#752=DIRECTION('',(-1.,0.,0.));
#753=DIRECTION('',(0.,0.,1.));
#754=DIRECTION('',(1.,0.,0.));
#755=DIRECTION('',(0.,0.,-1.));
#756=DIRECTION('',(0.,0.,1.));
#757=DIRECTION('',(1.,0.,0.));
#758=DIRECTION('',(0.,0.,-1.));
#759=DIRECTION('',(0.,0.,-1.));
#760=DIRECTION('',(-0.490063831535462,0.871686549753283,0.));
#761=DIRECTION('',(0.,0.,-1.));
#762=DIRECTION('',(-1.,0.,0.));
#763=DIRECTION('',(0.,0.,-1.));
#764=DIRECTION('',(0.,0.,-1.));
#765=DIRECTION('',(-1.,0.,0.));
#766=DIRECTION('',(0.,0.,-1.));
#767=DIRECTION('',(-1.,0.,0.));
#768=DIRECTION('',(0.,0.,-1.));
#769=DIRECTION('',(-1.,0.,0.));
#770=DIRECTION('',(0.,0.,-1.));
#771=DIRECTION('',(0.,0.,-1.));
#772=DIRECTION('',(-1.,0.,0.));
#773=DIRECTION('',(0.,0.,-1.));
#774=DIRECTION('',(-1.,0.,0.));
#775=DIRECTION('',(0.,0.,1.));
#776=DIRECTION('',(1.,0.,0.));
#777=DIRECTION('',(0.,0.,-1.));
#778=DIRECTION('',(0.,0.,1.));
#779=DIRECTION('',(1.,0.,0.));
#780=DIRECTION('',(0.,0.,-1.));
#781=DIRECTION('',(0.,0.,-1.));
#782=DIRECTION('',(-0.490074070972243,0.871680793043356,0.));
#783=DIRECTION('',(0.,0.,-1.));
#784=DIRECTION('',(-1.,0.,0.));
#785=DIRECTION('',(0.,0.,-1.));
#786=DIRECTION('',(0.,0.,-1.));
#787=DIRECTION('',(-1.,0.,0.));
#788=DIRECTION('',(0.,0.,-1.));
#789=DIRECTION('',(-1.,0.,0.));
#790=DIRECTION('',(0.,0.,-1.));
#791=DIRECTION('',(-1.,0.,0.));
#792=DIRECTION('',(0.,0.,-1.));
#793=DIRECTION('',(0.,0.,-1.));
#794=DIRECTION('',(-1.,0.,0.));
#795=DIRECTION('',(0.,0.,-1.));
#796=DIRECTION('',(-1.,0.,0.));
#797=DIRECTION('',(0.,0.,1.));
#798=DIRECTION('',(1.,0.,0.));
#799=DIRECTION('',(0.,0.,1.));
#800=DIRECTION('',(1.,0.,0.));
#801=DIRECTION('',(0.,0.,-1.));
#802=DIRECTION('',(0.483342028731451,0.875431598276967,0.));
#803=DIRECTION('',(0.,0.,-1.));
#804=DIRECTION('',(-1.,0.,0.));
#805=DIRECTION('',(0.,0.,-1.));
#806=DIRECTION('',(-1.,0.,0.));
#807=DIRECTION('',(0.,0.,-1.));
#808=DIRECTION('',(0.483352824308375,0.875425637751784,0.));
#809=DIRECTION('',(0.,0.,-1.));
#810=DIRECTION('',(-1.,0.,0.));
#811=DIRECTION('',(0.,0.,-1.));
#812=DIRECTION('',(-1.,0.,0.));
#813=DIRECTION('',(0.,0.,-1.));
#814=DIRECTION('',(0.48335263464214,0.875425742473056,0.));
#815=DIRECTION('',(0.,0.,-1.));
#816=DIRECTION('',(-1.,0.,0.));
#817=DIRECTION('',(0.,0.,-1.));
#818=DIRECTION('',(-1.,0.,0.));
#819=DIRECTION('',(0.,0.,-1.));
#820=DIRECTION('',(0.483341889610564,0.875431675088176,0.));
#821=DIRECTION('',(0.,0.,-1.));
#822=DIRECTION('',(-1.,0.,0.));
#823=DIRECTION('',(0.,0.,-1.));
#824=DIRECTION('',(-1.,0.,0.));
#825=DIRECTION('',(1.,0.,0.));
#826=DIRECTION('',(0.,0.,-1.));
#827=DIRECTION('',(0.,-1.,0.));
#828=DIRECTION('',(0.,-1.,0.));
#829=DIRECTION('',(0.,0.,1.));
#830=DIRECTION('',(1.7347234759768E-16,-1.,0.));
#831=DIRECTION('',(0.,0.,1.));
#832=DIRECTION('',(0.,0.,1.));
#833=DIRECTION('',(1.,0.,0.));
#834=DIRECTION('',(-1.,-1.7347234759768E-16,0.));
#835=DIRECTION('',(0.,0.,1.));
#836=DIRECTION('',(1.,0.,0.));
#837=DIRECTION('',(-1.,-1.7347234759768E-16,0.));
#838=DIRECTION('',(-1.7347234759768E-16,1.,0.));
#839=DIRECTION('',(-1.,-1.7347234759768E-16,0.));
#840=DIRECTION('',(-0.22447894041409,-3.89408887798721E-17,-0.97447894041409));
#841=DIRECTION('',(-1.7347234759768E-16,1.,0.));
#842=DIRECTION('',(-1.,-1.7347234759768E-16,0.));
#843=DIRECTION('',(0.,0.,-1.));
#844=DIRECTION('',(-1.7347234759768E-16,1.,0.));
#845=DIRECTION('',(-1.,-1.7347234759768E-16,0.));
#846=DIRECTION('',(0.,0.,-1.));
#847=DIRECTION('',(-1.7347234759768E-16,1.,0.));
#848=DIRECTION('',(-1.,-1.7347234759768E-16,0.));
#849=DIRECTION('',(0.22447894041409,3.8940888779872E-17,-0.97447894041409));
#850=DIRECTION('',(-1.7347234759768E-16,1.,0.));
#851=DIRECTION('',(-1.,-1.7347234759768E-16,0.));
#852=DIRECTION('',(0.22447894041409,3.8940888779872E-17,-0.97447894041409));
#853=DIRECTION('',(-1.7347234759768E-16,1.,0.));
#854=DIRECTION('',(-1.,-1.7347234759768E-16,0.));
#855=DIRECTION('',(0.,0.,-1.));
#856=DIRECTION('',(-1.7347234759768E-16,1.,0.));
#857=DIRECTION('',(-1.,-1.7347234759768E-16,0.));
#858=DIRECTION('',(0.,0.,-1.));
#859=DIRECTION('',(-1.7347234759768E-16,1.,0.));
#860=DIRECTION('',(-1.,-1.7347234759768E-16,0.));
#861=DIRECTION('',(-0.22447894041409,-3.89408887798721E-17,-0.97447894041409));
#862=DIRECTION('',(0.97447894041409,1.69045149478132E-16,-0.22447894041409));
#863=DIRECTION('',(-0.22447894041409,0.,-0.97447894041409));
#864=DIRECTION('',(-1.7347234759768E-16,1.,0.));
#865=DIRECTION('',(-1.7347234759768E-16,1.,0.));
#866=DIRECTION('',(-1.,-1.7347234759768E-16,0.));
#867=DIRECTION('',(-1.7347234759768E-16,1.,0.));
#868=DIRECTION('',(1.,1.7347234759768E-16,0.));
#869=DIRECTION('',(-1.7347234759768E-16,1.,0.));
#870=DIRECTION('',(-1.7347234759768E-16,1.,0.));
#871=DIRECTION('',(-1.7347234759768E-16,1.,0.));
#872=DIRECTION('',(-1.,-1.7347234759768E-16,0.));
#873=DIRECTION('',(-1.7347234759768E-16,1.,0.));
#874=DIRECTION('',(1.,1.7347234759768E-16,0.));
#875=DIRECTION('',(-1.7347234759768E-16,1.,0.));
#876=DIRECTION('',(-1.7347234759768E-16,1.,0.));
#877=DIRECTION('',(-1.7347234759768E-16,1.,0.));
#878=DIRECTION('',(-1.,-1.7347234759768E-16,0.));
#879=DIRECTION('',(-1.7347234759768E-16,1.,0.));
#880=DIRECTION('',(0.97447894041409,1.69045149478132E-16,0.22447894041409));
#881=DIRECTION('',(0.22447894041409,0.,-0.97447894041409));
#882=CARTESIAN_POINT('',(0.,0.,0.));
#883=CARTESIAN_POINT('',(0.0125,-3.21508079986924E-19,0.0212));
#884=CARTESIAN_POINT('',(0.0125,-3.21508079986924E-19,0.0187));
#885=CARTESIAN_POINT('',(0.0025,-3.21508079986924E-19,0.0187));
#886=CARTESIAN_POINT('',(0.0225,3.04756220259605E-16,0.0187));
#887=CARTESIAN_POINT('',(0.0225,3.04756220259605E-16,0.0212));
#888=CARTESIAN_POINT('',(0.0225,3.04756220259605E-16,0.0212));
#889=CARTESIAN_POINT('',(0.0125,-3.21508079986924E-19,0.0212));
#890=CARTESIAN_POINT('',(0.0025,-3.21508079986924E-19,0.0212));
#891=CARTESIAN_POINT('',(0.0025,-3.21508079986924E-19,0.0212));
#892=CARTESIAN_POINT('',(0.0225,0.005,0.0212));
#893=CARTESIAN_POINT('',(0.0225,0.005,0.0187));
#894=CARTESIAN_POINT('',(0.0225,0.02,0.0187));
#895=CARTESIAN_POINT('',(0.0225,0.02,0.0252));
#896=CARTESIAN_POINT('',(0.0225,0.02,0.0317));
#897=CARTESIAN_POINT('',(0.0225,0.02,0.0317));
#898=CARTESIAN_POINT('',(0.0225,0.01,0.0317));
#899=CARTESIAN_POINT('',(0.0225,0.01,0.0252));
#900=CARTESIAN_POINT('',(0.0225,0.01,0.0212));
#901=CARTESIAN_POINT('',(0.0225,0.005,0.0212));
#902=CARTESIAN_POINT('',(0.0174497474683058,-0.00494974746830583,0.0212));
#903=CARTESIAN_POINT('',(0.0174497474683058,-0.00494974746830583,0.0187));
#904=CARTESIAN_POINT('',(0.0166366278320977,-0.0036892569061782,0.0187));
#905=CARTESIAN_POINT('',(0.0182467257143778,-0.00367898955454368,0.0187));
#906=CARTESIAN_POINT('',(0.0166366278320977,-0.0036892569061782,0.0212));
#907=CARTESIAN_POINT('',(0.0166366278320977,-0.0036892569061782,0.0212));
#908=CARTESIAN_POINT('',(0.0174497474683058,-0.00494974746830583,0.0212));
#909=CARTESIAN_POINT('',(0.0182467278252217,-0.00367898683301398,0.0212));
#910=CARTESIAN_POINT('',(0.0182467257143778,-0.00367898955454368,0.0212));
#911=CARTESIAN_POINT('',(0.0175369313021139,-0.00480700663272273,0.0211999999999998));
#912=CARTESIAN_POINT('',(0.0175369313021139,-0.00480700663272273,0.0187));
#913=CARTESIAN_POINT('',(0.0170502940323034,-0.00345808489114487,0.0187));
#914=CARTESIAN_POINT('',(0.0170503411639896,-0.00345805999076761,0.0212));
#915=CARTESIAN_POINT('',(0.0170502708940139,-0.00345808302191439,0.0212));
#916=CARTESIAN_POINT('',(0.0175369313021139,-0.00480700663272273,0.0212));
#917=CARTESIAN_POINT('',(0.0174497474683058,-0.00494974746830583,0.0212));
#918=CARTESIAN_POINT('',(0.0174497474683058,-0.00494974746830583,0.0187));
#919=CARTESIAN_POINT('',(0.0178478002311492,-0.00345897485050232,0.0187));
#920=CARTESIAN_POINT('',(0.0178478002311492,-0.00345897485050232,0.0212));
#921=CARTESIAN_POINT('',(0.0178478002311492,-0.00345897485050232,0.0212));
#922=CARTESIAN_POINT('',(0.0174497474683058,-0.00494974746830583,0.0212));
#923=CARTESIAN_POINT('',(0.00755025253169417,-0.00494974746830583,0.0212));
#924=CARTESIAN_POINT('',(0.00755025253169417,-0.00494974746830583,0.0187));
#925=CARTESIAN_POINT('',(0.00673717348393928,-0.00368923072422743,0.0187));
#926=CARTESIAN_POINT('',(0.00834730818500628,-0.00367903810513987,0.0187));
#927=CARTESIAN_POINT('',(0.00673717348393928,-0.00368923072422743,0.0212));
#928=CARTESIAN_POINT('',(0.00673717348393928,-0.00368923072422743,0.0212));
#929=CARTESIAN_POINT('',(0.00755025253169417,-0.00494974746830583,0.0212));
#930=CARTESIAN_POINT('',(0.00834731033471725,-0.00367903533364398,0.0212));
#931=CARTESIAN_POINT('',(0.00834730818500628,-0.00367903810513987,0.0212));
#932=CARTESIAN_POINT('',(0.00763747294434797,-0.00480704392344034,0.0212000000000001));
#933=CARTESIAN_POINT('',(0.00763747294434797,-0.00480704392344034,0.0187));
#934=CARTESIAN_POINT('',(0.00715080856773689,-0.0034580822210719,0.0187));
#935=CARTESIAN_POINT('',(0.00715085572736552,-0.00345805736786273,0.0212));
#936=CARTESIAN_POINT('',(0.00715078544366328,-0.00345808040358626,0.0212));
#937=CARTESIAN_POINT('',(0.00763747294434797,-0.00480704392344034,0.0212));
#938=CARTESIAN_POINT('',(0.00755025253169417,-0.00494974746830583,0.0212));
#939=CARTESIAN_POINT('',(0.00755025253169417,-0.00494974746830583,0.0187));
#940=CARTESIAN_POINT('',(0.00794830369321645,-0.0034589744229328,0.0187));
#941=CARTESIAN_POINT('',(0.00794830369321645,-0.0034589744229328,0.0212));
#942=CARTESIAN_POINT('',(0.00794830369321645,-0.0034589744229328,0.0212));
#943=CARTESIAN_POINT('',(0.00755025253169417,-0.00494974746830583,0.0212));
#944=CARTESIAN_POINT('',(0.00755025253169417,0.00494974746830583,0.0212));
#945=CARTESIAN_POINT('',(0.00755025253169417,0.00494974746830583,0.0187));
#946=CARTESIAN_POINT('',(0.00673717286807921,0.00621026381513192,0.0187));
#947=CARTESIAN_POINT('',(0.00834730689906299,0.00622045763808195,0.0187));
#948=CARTESIAN_POINT('',(0.00673717286807921,0.00621026381513192,0.0212));
#949=CARTESIAN_POINT('',(0.00673717286807921,0.00621026381513192,0.0212));
#950=CARTESIAN_POINT('',(0.00755025253169417,0.00494974746830583,0.0212));
#951=CARTESIAN_POINT('',(0.00834730904770951,0.00622046040821117,0.0212));
#952=CARTESIAN_POINT('',(0.00834730689906299,0.00622045763808195,0.0212));
#953=CARTESIAN_POINT('',(0.00763747235404147,0.00509245158469783,0.0212000000000001));
#954=CARTESIAN_POINT('',(0.00763747235404147,0.00509245158469783,0.0187));
#955=CARTESIAN_POINT('',(0.00715080840586719,0.00644141266449126,0.0187));
#956=CARTESIAN_POINT('',(0.00715085556481562,0.00644143751841349,0.0212));
#957=CARTESIAN_POINT('',(0.00715078528164385,0.00644141448286478,0.0212));
#958=CARTESIAN_POINT('',(0.00763747235404147,0.00509245158469783,0.0212));
#959=CARTESIAN_POINT('',(0.00755025253169417,0.00494974746830583,0.0212));
#960=CARTESIAN_POINT('',(0.00755025253169417,0.00494974746830583,0.0187));
#961=CARTESIAN_POINT('',(0.00794830373529212,0.00644052050244423,0.0187));
#962=CARTESIAN_POINT('',(0.00794830373529212,0.00644052050244423,0.0212));
#963=CARTESIAN_POINT('',(0.00794830373529212,0.00644052050244423,0.0212));
#964=CARTESIAN_POINT('',(0.00755025253169417,0.00494974746830583,0.0212));
#965=CARTESIAN_POINT('',(0.0174497474683058,0.00494974746830583,0.0212));
#966=CARTESIAN_POINT('',(0.0174497474683058,0.00494974746830583,0.0187));
#967=CARTESIAN_POINT('',(0.0166366272057279,0.00621023762637338,0.0187));
#968=CARTESIAN_POINT('',(0.0182467247163153,0.00622050600801986,0.0187));
#969=CARTESIAN_POINT('',(0.0166366272057279,0.00621023762637338,0.0212));
#970=CARTESIAN_POINT('',(0.0166366272057279,0.00621023762637338,0.0212));
#971=CARTESIAN_POINT('',(0.0174497474683058,0.00494974746830583,0.0212));
#972=CARTESIAN_POINT('',(0.0182467268266592,0.00622050872890684,0.0212));
#973=CARTESIAN_POINT('',(0.0182467247163153,0.00622050600801986,0.0212));
#974=CARTESIAN_POINT('',(0.0175369307720224,0.00509248887252665,0.0212));
#975=CARTESIAN_POINT('',(0.0175369307720224,0.00509248887252665,0.0187));
#976=CARTESIAN_POINT('',(0.017050293905496,0.00644141001494929,0.0187));
#977=CARTESIAN_POINT('',(0.0170503410370003,0.00644143491605389,0.0212));
#978=CARTESIAN_POINT('',(0.0170502707669244,0.00644141188487584,0.0212));
#979=CARTESIAN_POINT('',(0.0175369307720224,0.00509248887252665,0.0212));
#980=CARTESIAN_POINT('',(0.0174497474683058,0.00494974746830583,0.0212));
#981=CARTESIAN_POINT('',(0.0174497474683058,0.00494974746830583,0.0187));
#982=CARTESIAN_POINT('',(0.0178478002517484,0.00644052008060912,0.0187));
#983=CARTESIAN_POINT('',(0.0178478002517484,0.00644052008060912,0.0212));
#984=CARTESIAN_POINT('',(0.0178478002517484,0.00644052008060912,0.0212));
#985=CARTESIAN_POINT('',(0.0174497474683058,0.00494974746830583,0.0212));
#986=CARTESIAN_POINT('',(0.0125,3.04939917279477E-16,0.0212));
#987=CARTESIAN_POINT('',(0.0125,3.04939917279477E-16,0.0212));
#988=CARTESIAN_POINT('',(0.0155,3.04939917279477E-16,0.0212));
#989=CARTESIAN_POINT('',(0.0125,3.04939917279477E-16,0.0187));
#990=CARTESIAN_POINT('',(0.0155,3.04939917279477E-16,0.0187));
#991=CARTESIAN_POINT('',(0.0173464552938325,-0.0048397161826648,0.0212));
#992=CARTESIAN_POINT('',(0.0173464552938325,-0.0048397161826648,0.0187));
#993=CARTESIAN_POINT('',(0.0173464552938325,-0.0048397161826648,0.0212));
#994=CARTESIAN_POINT('',(0.00744691266398897,-0.00483986508041846,0.0212));
#995=CARTESIAN_POINT('',(0.00744691266398897,-0.00483986508041846,0.0187));
#996=CARTESIAN_POINT('',(0.00744691266398897,-0.00483986508041846,0.0212));
#997=CARTESIAN_POINT('',(0.00744691328713021,0.00505963204122857,0.0211999999999999));
#998=CARTESIAN_POINT('',(0.00744691328713021,0.00505963204122857,0.0187));
#999=CARTESIAN_POINT('',(0.00744691328713021,0.00505963204122857,0.0212));
#1000=CARTESIAN_POINT('',(0.0173464559094528,0.00505978067514877,0.0212));
#1001=CARTESIAN_POINT('',(0.0173464559094528,0.00505978067514877,0.0187));
#1002=CARTESIAN_POINT('',(0.0173464559094528,0.00505978067514877,0.0212));
#1003=CARTESIAN_POINT('',(0.0025,0.005,0.0212));
#1004=CARTESIAN_POINT('',(0.0025,0.005,0.0187));
#1005=CARTESIAN_POINT('',(0.0025,0.02,0.0187));
#1006=CARTESIAN_POINT('',(0.0025,0.005,0.0212));
#1007=CARTESIAN_POINT('',(0.0025,0.01,0.0212));
#1008=CARTESIAN_POINT('',(0.0025,0.01,0.0252));
#1009=CARTESIAN_POINT('',(0.0025,0.01,0.0317));
#1010=CARTESIAN_POINT('',(0.0025,0.02,0.0317));
#1011=CARTESIAN_POINT('',(0.0025,0.02,0.0317));
#1012=CARTESIAN_POINT('',(0.0025,0.02,0.0252));
#1013=CARTESIAN_POINT('',(0.00769925273582565,1.52655665885959E-16,0.0212));
#1014=CARTESIAN_POINT('',(0.0175,0.01,0.0212));
#1015=CARTESIAN_POINT('',(0.00769925273582565,1.52655665885959E-16,0.0187));
#1016=CARTESIAN_POINT('',(0.0175,0.02,0.0187));
#1017=CARTESIAN_POINT('',(0.0125,0.02,0.0287));
#1018=CARTESIAN_POINT('',(0.00384570397344715,0.02,0.0375417960265529));
#1019=CARTESIAN_POINT('',(0.00519140794689433,0.02,0.0433835920531057));
#1020=CARTESIAN_POINT('',(0.0125,0.02,0.0417));
#1021=CARTESIAN_POINT('',(0.012,0.02,0.0491833147735479));
#1022=CARTESIAN_POINT('',(0.012,0.02,0.0479291259795405));
#1023=CARTESIAN_POINT('',(0.012,0.02,0.0466749371855331));
#1024=CARTESIAN_POINT('',(0.0125,0.02,0.0417));
#1025=CARTESIAN_POINT('',(0.013,0.02,0.0466749371855331));
#1026=CARTESIAN_POINT('',(0.013,0.02,0.0479291259795405));
#1027=CARTESIAN_POINT('',(0.013,0.02,0.0491833147735479));
#1028=CARTESIAN_POINT('',(0.0125,0.02,0.0417));
#1029=CARTESIAN_POINT('',(0.0198085920531057,0.02,0.0433835920531057));
#1030=CARTESIAN_POINT('',(0.0211542960265528,0.02,0.0375417960265529));
#1031=CARTESIAN_POINT('',(0.0125,0.01,0.0287));
#1032=CARTESIAN_POINT('',(0.0211542960265528,0.01,0.0375417960265529));
#1033=CARTESIAN_POINT('',(0.0198085920531057,0.01,0.0433835920531057));
#1034=CARTESIAN_POINT('',(0.0125,0.01,0.0417));
#1035=CARTESIAN_POINT('',(0.013,0.01,0.0491833147735479));
#1036=CARTESIAN_POINT('',(0.013,0.01,0.0479291259795405));
#1037=CARTESIAN_POINT('',(0.013,0.01,0.0466749371855331));
#1038=CARTESIAN_POINT('',(0.0125,0.01,0.0417));
#1039=CARTESIAN_POINT('',(0.012,0.01,0.0466749371855331));
#1040=CARTESIAN_POINT('',(0.012,0.01,0.0479291259795405));
#1041=CARTESIAN_POINT('',(0.012,0.01,0.0491833147735479));
#1042=CARTESIAN_POINT('',(0.0125,0.01,0.0417));
#1043=CARTESIAN_POINT('',(0.00519140794689433,0.01,0.0433835920531057));
#1044=CARTESIAN_POINT('',(0.00384570397344716,0.01,0.0375417960265529));
#1045=CARTESIAN_POINT('',(0.00384570397344716,0.01,0.0375417960265529));
#1046=CARTESIAN_POINT('',(0.00519140794689433,0.01,0.0433835920531057));
#1047=CARTESIAN_POINT('',(0.0125,0.01,0.0417));
#1048=CARTESIAN_POINT('',(0.012,0.01,0.0491833147735479));
#1049=CARTESIAN_POINT('',(0.012,0.01,0.0479291259795405));
#1050=CARTESIAN_POINT('',(0.012,0.01,0.0466749371855331));
#1051=CARTESIAN_POINT('',(0.0125,0.01,0.0417));
#1052=CARTESIAN_POINT('',(0.013,0.01,0.0466749371855331));
#1053=CARTESIAN_POINT('',(0.013,0.01,0.0479291259795405));
#1054=CARTESIAN_POINT('',(0.013,0.01,0.0491833147735479));
#1055=CARTESIAN_POINT('',(0.0125,0.01,0.0417));
#1056=CARTESIAN_POINT('',(0.0198085920531057,0.01,0.0433835920531057));
#1057=CARTESIAN_POINT('',(0.0211542960265528,0.01,0.0375417960265529));
#1058=MECHANICAL_DESIGN_GEOMETRIC_PRESENTATION_REPRESENTATION('',(#605),
#1059);
#1059=(
GEOMETRIC_REPRESENTATION_CONTEXT(3)
GLOBAL_UNCERTAINTY_ASSIGNED_CONTEXT((#1060))
GLOBAL_UNIT_ASSIGNED_CONTEXT((#1063,#1062,#1061))
REPRESENTATION_CONTEXT('Part 8','TOP_LEVEL_ASSEMBLY_PART')
);
#1060=UNCERTAINTY_MEASURE_WITH_UNIT(LENGTH_MEASURE(2.86930401297376E-6),
#1063,'DISTANCE_ACCURACY_VALUE','Maximum Tolerance applied to model');
#1061=(
NAMED_UNIT(*)
SI_UNIT($,.STERADIAN.)
SOLID_ANGLE_UNIT()
);
#1062=(
NAMED_UNIT(*)
PLANE_ANGLE_UNIT()
SI_UNIT($,.RADIAN.)
);
#1063=(
LENGTH_UNIT()
NAMED_UNIT(*)
SI_UNIT($,.METRE.)
);
#1064=PRODUCT_DEFINITION_SHAPE('','',#1065);
#1065=PRODUCT_DEFINITION('','',#1067,#1066);
#1066=PRODUCT_DEFINITION_CONTEXT('',#1073,'design');
#1067=PRODUCT_DEFINITION_FORMATION_WITH_SPECIFIED_SOURCE('','',#1069,
 .NOT_KNOWN.);
#1068=PRODUCT_RELATED_PRODUCT_CATEGORY('','',(#1069));
#1069=PRODUCT('Part 8','Part 8','Part 8',(#1071));
#1070=PRODUCT_CATEGORY('','');
#1071=PRODUCT_CONTEXT('',#1073,'mechanical');
#1072=APPLICATION_PROTOCOL_DEFINITION('international standard',
'ap242_managed_model_based_3d_engineering',2020,#1073);
#1073=APPLICATION_CONTEXT('managed model based 3d engineering');
ENDSEC;
END-ISO-10303-21;
